<?xml version="1.0" encoding="utf-8"?>
<!DOCTYPE svg PUBLIC "-//W3C//DTD SVG 1.1//EN" "http://www.w3.org/Graphics/SVG/1.1/DTD/svg11.dtd">
<svg version="1.1" xmlns="http://www.w3.org/2000/svg" xmlns:xlink="http://www.w3.org/1999/xlink" x="0px" y="0px"
	 width="45px" height="45px" viewBox="0 0 45 45" enable-background="new 0 0 45 45" xml:space="preserve">
<path id="XMLID_3651_" fill="#FFFFFF" d="M41.2,45h1.9H45V3.8V1.9V0H0v1.9v1.9V45h1.9h1.9h5.6v-1.9c0-7.2,5.9-13.1,13.1-13.1
	s13.1,5.9,13.1,13.1V45H41.2z M15,18.8c0-4.1,3.4-7.5,7.5-7.5s7.5,3.4,7.5,7.5s-3.4,7.5-7.5,7.5S15,22.9,15,18.8z M29.3,27.7
	c2.7-2.1,4.5-5.3,4.5-8.9c0-6.2-5-11.2-11.2-11.2s-11.2,5-11.2,11.2c0,3.6,1.8,6.9,4.5,8.9c-5.4,2.4-9.3,7.5-10,13.6h-2V3.8h37.5
	v37.5h-2C38.6,35.2,34.7,30.1,29.3,27.7z"/>
</svg>
