<svg xmlns="http://www.w3.org/2000/svg" xmlns:xlink="http://www.w3.org/1999/xlink" width="192" zoomAndPan="magnify" viewBox="0 0 144 143.999998" height="192" preserveAspectRatio="xMidYMid meet" version="1.0"><defs><g/><clipPath id="fee16c0aa8"><path d="M 17.933594 43 L 37 43 L 37 77.585938 L 17.933594 77.585938 Z M 17.933594 43 " clip-rule="nonzero"/></clipPath><clipPath id="7a71025754"><path d="M 90 27 L 125.933594 27 L 125.933594 76 L 90 76 Z M 90 27 " clip-rule="nonzero"/></clipPath><clipPath id="a2d3b0e70b"><path d="M 24 12.335938 L 104 12.335938 L 104 40 L 24 40 Z M 24 12.335938 " clip-rule="nonzero"/></clipPath><clipPath id="b4c95c2067"><path d="M 39.175781 82 L 105.175781 82 L 105.175781 132.984375 L 39.175781 132.984375 Z M 39.175781 82 " clip-rule="nonzero"/></clipPath><clipPath id="77408e96ed"><path d="M 39.175781 93 L 51 93 L 51 122 L 39.175781 122 Z M 39.175781 93 " clip-rule="nonzero"/></clipPath><clipPath id="1f2cb8ae59"><path d="M 57.6875 106 L 90.6875 106 L 90.6875 122.386719 L 57.6875 122.386719 Z M 57.6875 106 " clip-rule="nonzero"/></clipPath><clipPath id="5c17f4b8eb"><path d="M 65 112 L 74 112 L 74 122.386719 L 65 122.386719 Z M 65 112 " clip-rule="nonzero"/></clipPath><clipPath id="835eb91052"><path d="M 62 106 L 87 106 L 87 122.386719 L 62 122.386719 Z M 62 106 " clip-rule="nonzero"/></clipPath><clipPath id="14949886d4"><path d="M 71 116 L 78 116 L 78 122.386719 L 71 122.386719 Z M 71 116 " clip-rule="nonzero"/></clipPath><clipPath id="914a08e7d2"><path d="M 74 92.386719 L 87 92.386719 L 87 112 L 74 112 Z M 74 92.386719 " clip-rule="nonzero"/></clipPath></defs><rect x="-14.4" width="172.8" fill="#ffffff" y="-14.4" height="172.799997" fill-opacity="1"/><rect x="-14.4" width="172.8" fill="#294238" y="-14.4" height="172.799997" fill-opacity="1"/><path fill="#f57821" d="M 74.414062 73.269531 C 73.050781 72.273438 72.890625 70.75 72.890625 70.75 L 72.367188 67.46875 L 56.042969 67.46875 L 55.519531 70.75 C 55.519531 70.75 55.386719 72.246094 54.023438 73.269531 C 52.660156 74.265625 51.582031 75.132812 52.660156 75.289062 C 53.707031 75.421875 63.496094 75.289062 64.207031 75.289062 C 64.941406 75.289062 74.730469 75.421875 75.753906 75.289062 C 76.855469 75.132812 75.777344 74.265625 74.414062 73.269531 Z M 74.414062 73.269531 " fill-opacity="1" fill-rule="nonzero"/><g clip-path="url(#fee16c0aa8)"><path fill="#f57821" d="M 36.441406 45.792969 C 36.441406 44.273438 35.207031 43.039062 33.683594 43.039062 L 20.695312 43.039062 C 19.171875 43.039062 17.9375 44.273438 17.9375 45.792969 L 17.9375 74.582031 C 17.9375 76.105469 19.171875 77.339844 20.695312 77.339844 L 33.710938 77.339844 C 35.234375 77.339844 36.464844 76.105469 36.464844 74.582031 Z M 25.839844 46.136719 L 28.59375 46.136719 C 28.777344 46.136719 28.933594 46.292969 28.933594 46.476562 C 28.933594 46.660156 28.777344 46.816406 28.59375 46.816406 L 25.839844 46.816406 C 25.65625 46.816406 25.496094 46.660156 25.496094 46.476562 C 25.496094 46.292969 25.65625 46.136719 25.839844 46.136719 Z M 27.097656 75.710938 C 26.335938 75.710938 25.734375 75.105469 25.734375 74.347656 C 25.734375 73.585938 26.335938 72.980469 27.097656 72.980469 C 27.859375 72.980469 28.460938 73.585938 28.460938 74.347656 C 28.460938 75.082031 27.859375 75.710938 27.097656 75.710938 Z M 34.734375 71.851562 L 19.644531 71.851562 L 19.644531 48.890625 L 34.734375 48.890625 Z M 34.734375 71.851562 " fill-opacity="1" fill-rule="nonzero"/></g><g clip-path="url(#7a71025754)"><path fill="#f57821" d="M 122.203125 27.265625 L 93.992188 27.265625 C 91.867188 27.265625 90.132812 29 90.132812 31.125 L 90.132812 71.511719 C 90.132812 73.636719 91.867188 75.371094 93.992188 75.371094 L 122.203125 75.371094 C 124.328125 75.371094 126.058594 73.636719 126.058594 71.511719 L 126.058594 31.125 C 126.058594 29 124.328125 27.265625 122.203125 27.265625 Z M 102.574219 73.21875 C 101.523438 73.21875 100.65625 72.351562 100.65625 71.300781 C 100.65625 70.253906 101.523438 69.386719 102.574219 69.386719 C 103.621094 69.386719 104.488281 70.253906 104.488281 71.300781 C 104.515625 72.351562 103.648438 73.21875 102.574219 73.21875 Z M 108.109375 73.21875 C 107.058594 73.21875 106.195312 72.351562 106.195312 71.300781 C 106.195312 70.253906 107.058594 69.386719 108.109375 69.386719 C 109.1875 69.386719 110.027344 70.253906 110.027344 71.300781 C 110.027344 72.351562 109.160156 73.21875 108.109375 73.21875 Z M 113.648438 73.21875 C 112.570312 73.21875 111.730469 72.351562 111.730469 71.300781 C 111.730469 70.253906 112.597656 69.386719 113.648438 69.386719 C 114.695312 69.386719 115.5625 70.253906 115.5625 71.300781 C 115.5625 72.351562 114.695312 73.21875 113.648438 73.21875 Z M 123.644531 67.652344 L 92.574219 67.652344 L 92.574219 30.652344 L 123.671875 30.652344 L 123.671875 67.652344 Z M 123.644531 67.652344 " fill-opacity="1" fill-rule="nonzero"/></g><g clip-path="url(#a2d3b0e70b)"><path fill="#f57821" d="M 98.898438 24.039062 L 103.621094 24.039062 L 103.621094 15.484375 C 103.621094 13.75 102.207031 12.335938 100.472656 12.335938 L 27.988281 12.335938 C 26.257812 12.335938 24.839844 13.75 24.839844 15.484375 L 24.839844 39.808594 L 29.566406 39.808594 L 29.566406 17.058594 L 98.925781 17.058594 L 98.925781 24.039062 Z M 98.898438 24.039062 " fill-opacity="1" fill-rule="nonzero"/></g><path fill="#f57821" d="M 39.695312 54.875 L 39.695312 64.320312 L 86.90625 64.320312 L 86.90625 54.875 Z M 64.230469 61.75 C 63.050781 61.75 62.078125 60.777344 62.078125 59.597656 C 62.078125 58.417969 63.050781 57.445312 64.230469 57.445312 C 65.414062 57.445312 66.382812 58.417969 66.382812 59.597656 C 66.410156 60.804688 65.4375 61.75 64.230469 61.75 Z M 64.230469 61.75 " fill-opacity="1" fill-rule="nonzero"/><g clip-path="url(#b4c95c2067)"><path fill="#f57821" d="M 104.847656 94.578125 C 105.0625 94.898438 105.175781 95.273438 105.175781 95.660156 L 105.175781 119.078125 C 105.175781 119.464844 105.0625 119.839844 104.847656 120.160156 L 97.039062 131.871094 C 96.679688 132.414062 96.070312 132.738281 95.417969 132.738281 L 48.582031 132.738281 C 47.929688 132.738281 47.320312 132.414062 46.957031 131.871094 L 39.152344 120.160156 C 38.9375 119.839844 38.824219 119.464844 38.824219 119.078125 L 38.824219 95.660156 C 38.824219 95.273438 38.9375 94.898438 39.152344 94.578125 L 46.957031 82.867188 C 47.320312 82.324219 47.929688 82 48.582031 82 L 95.417969 82 C 96.070312 82 96.679688 82.324219 97.039062 82.867188 Z M 101.273438 96.25 L 94.371094 85.902344 L 49.625 85.902344 L 42.726562 96.25 L 42.726562 118.488281 L 49.625 128.835938 L 94.371094 128.835938 L 101.273438 118.488281 Z M 101.273438 96.25 " fill-opacity="1" fill-rule="evenodd"/></g><path fill="#f57821" d="M 91.515625 89.804688 C 92.59375 89.804688 93.464844 90.679688 93.464844 91.757812 L 93.464844 122.980469 C 93.464844 124.058594 92.59375 124.933594 91.515625 124.933594 L 56.386719 124.933594 C 55.308594 124.933594 54.433594 124.058594 54.433594 122.980469 L 54.433594 91.757812 C 54.433594 90.679688 55.308594 89.804688 56.386719 89.804688 Z M 89.5625 93.707031 L 58.339844 93.707031 L 58.339844 121.03125 L 89.5625 121.03125 Z M 89.5625 93.707031 " fill-opacity="1" fill-rule="evenodd"/><g clip-path="url(#77408e96ed)"><path fill="#f57821" d="M 48.582031 93.707031 C 49.660156 93.707031 50.53125 94.582031 50.53125 95.660156 L 50.53125 119.078125 C 50.53125 120.15625 49.660156 121.03125 48.582031 121.03125 L 40.773438 121.03125 C 39.695312 121.03125 38.824219 120.15625 38.824219 119.078125 C 38.824219 118 39.695312 117.125 40.773438 117.125 L 46.628906 117.125 L 46.628906 97.613281 L 40.773438 97.613281 C 39.695312 97.613281 38.824219 96.738281 38.824219 95.660156 C 38.824219 94.582031 39.695312 93.707031 40.773438 93.707031 Z M 48.582031 93.707031 " fill-opacity="1" fill-rule="evenodd"/></g><path fill="#f57821" d="M 97.367188 101.515625 C 98.445312 101.515625 99.320312 102.386719 99.320312 103.464844 L 99.320312 111.273438 C 99.320312 112.351562 98.445312 113.222656 97.367188 113.222656 C 96.289062 113.222656 95.417969 112.351562 95.417969 111.273438 L 95.417969 103.464844 C 95.417969 102.386719 96.289062 101.515625 97.367188 101.515625 Z M 97.367188 101.515625 " fill-opacity="1" fill-rule="evenodd"/><g clip-path="url(#1f2cb8ae59)"><path fill="#f57821" d="M 89.703125 122.351562 L 58.375 122.351562 C 58.164062 122.351562 57.964844 122.253906 57.835938 122.085938 C 57.707031 121.917969 57.664062 121.699219 57.71875 121.492188 L 61.804688 106.511719 C 61.886719 106.214844 62.15625 106.007812 62.460938 106.007812 L 77.445312 106.007812 C 77.820312 106.007812 78.125 106.3125 78.125 106.6875 C 78.125 107.066406 77.820312 107.371094 77.445312 107.371094 L 62.984375 107.371094 L 59.269531 120.992188 L 88.8125 120.992188 L 85.097656 107.371094 L 82.894531 107.371094 C 82.515625 107.371094 82.210938 107.066406 82.210938 106.6875 C 82.210938 106.3125 82.515625 106.007812 82.894531 106.007812 L 85.617188 106.007812 C 85.925781 106.007812 86.191406 106.214844 86.273438 106.511719 L 90.359375 121.492188 C 90.414062 121.699219 90.371094 121.917969 90.242188 122.085938 C 90.117188 122.253906 89.914062 122.351562 89.703125 122.351562 Z M 89.703125 122.351562 " fill-opacity="1" fill-rule="nonzero"/></g><g clip-path="url(#5c17f4b8eb)"><path fill="#f57821" d="M 66.546875 122.351562 C 66.40625 122.351562 66.261719 122.308594 66.140625 122.214844 C 65.839844 121.992188 65.777344 121.5625 66.003906 121.261719 L 72.132812 113.089844 C 72.359375 112.789062 72.785156 112.726562 73.085938 112.953125 C 73.386719 113.179688 73.449219 113.605469 73.222656 113.90625 L 67.09375 122.082031 C 66.960938 122.257812 66.753906 122.351562 66.546875 122.351562 Z M 66.546875 122.351562 " fill-opacity="1" fill-rule="nonzero"/></g><g clip-path="url(#835eb91052)"><path fill="#f57821" d="M 85.617188 122.351562 C 85.488281 122.351562 85.355469 122.316406 85.238281 122.238281 L 62.765625 107.253906 C 62.453125 107.046875 62.367188 106.625 62.578125 106.3125 C 62.785156 106 63.207031 105.914062 63.519531 106.121094 L 85.996094 121.105469 C 86.308594 121.3125 86.390625 121.734375 86.183594 122.046875 C 86.054688 122.246094 85.835938 122.351562 85.617188 122.351562 Z M 85.617188 122.351562 " fill-opacity="1" fill-rule="nonzero"/></g><path fill="#f57821" d="M 69.273438 118.265625 C 69.144531 118.265625 69.011719 118.230469 68.894531 118.152344 L 60.722656 112.703125 C 60.410156 112.496094 60.324219 112.074219 60.535156 111.761719 C 60.742188 111.445312 61.164062 111.363281 61.476562 111.570312 L 69.648438 117.019531 C 69.964844 117.226562 70.046875 117.648438 69.839844 117.960938 C 69.707031 118.160156 69.492188 118.265625 69.273438 118.265625 Z M 69.273438 118.265625 " fill-opacity="1" fill-rule="nonzero"/><path fill="#f57821" d="M 82.894531 116.222656 C 82.753906 116.222656 82.617188 116.183594 82.496094 116.097656 C 82.191406 115.878906 82.121094 115.453125 82.339844 115.148438 L 85.746094 110.378906 C 85.964844 110.074219 86.390625 110.003906 86.695312 110.222656 C 87 110.441406 87.070312 110.867188 86.851562 111.171875 L 83.445312 115.9375 C 83.3125 116.125 83.105469 116.222656 82.894531 116.222656 Z M 82.894531 116.222656 " fill-opacity="1" fill-rule="nonzero"/><path fill="#f57821" d="M 89.023438 120.308594 C 88.894531 120.308594 88.765625 120.273438 88.648438 120.199219 L 68.902344 107.257812 C 68.585938 107.054688 68.5 106.628906 68.703125 106.316406 C 68.910156 106.003906 69.332031 105.914062 69.644531 106.117188 L 89.394531 119.058594 C 89.710938 119.261719 89.796875 119.6875 89.59375 120 C 89.460938 120.199219 89.242188 120.308594 89.023438 120.308594 Z M 89.023438 120.308594 " fill-opacity="1" fill-rule="nonzero"/><g clip-path="url(#14949886d4)"><path fill="#f57821" d="M 75.402344 122.351562 C 75.28125 122.351562 75.160156 122.320312 75.050781 122.253906 L 71.648438 120.210938 C 71.488281 120.117188 71.371094 119.960938 71.332031 119.777344 C 71.292969 119.597656 71.328125 119.40625 71.429688 119.25 L 72.792969 117.207031 C 72.992188 116.90625 73.394531 116.8125 73.710938 117.003906 L 77.113281 119.046875 C 77.273438 119.140625 77.390625 119.300781 77.429688 119.480469 C 77.46875 119.664062 77.433594 119.851562 77.332031 120.007812 L 75.96875 122.050781 C 75.835938 122.246094 75.621094 122.351562 75.402344 122.351562 Z M 72.960938 119.410156 L 75.195312 120.753906 L 75.800781 119.84375 L 73.5625 118.503906 Z M 72.960938 119.410156 " fill-opacity="1" fill-rule="nonzero"/></g><path fill="#f57821" d="M 80.167969 101.921875 C 78.292969 101.921875 76.765625 100.394531 76.765625 98.515625 C 76.765625 96.640625 78.292969 95.113281 80.167969 95.113281 C 82.046875 95.113281 83.574219 96.640625 83.574219 98.515625 C 83.574219 100.394531 82.046875 101.921875 80.167969 101.921875 Z M 80.167969 96.472656 C 79.042969 96.472656 78.125 97.390625 78.125 98.515625 C 78.125 99.644531 79.042969 100.558594 80.167969 100.558594 C 81.296875 100.558594 82.210938 99.644531 82.210938 98.515625 C 82.210938 97.390625 81.296875 96.472656 80.167969 96.472656 Z M 80.167969 96.472656 " fill-opacity="1" fill-rule="nonzero"/><g clip-path="url(#914a08e7d2)"><path fill="#f57821" d="M 80.167969 111.457031 C 79.925781 111.457031 79.703125 111.328125 79.582031 111.121094 C 79.015625 110.160156 74.039062 101.621094 74.039062 98.515625 C 74.039062 95.136719 76.789062 92.386719 80.167969 92.386719 C 83.546875 92.386719 86.296875 95.136719 86.296875 98.515625 C 86.296875 101.621094 81.324219 110.160156 80.753906 111.121094 C 80.632812 111.328125 80.410156 111.457031 80.167969 111.457031 Z M 80.167969 93.75 C 77.539062 93.75 75.402344 95.886719 75.402344 98.515625 C 75.402344 100.570312 78.441406 106.363281 80.167969 109.410156 C 81.894531 106.363281 84.9375 100.570312 84.9375 98.515625 C 84.9375 95.886719 82.796875 93.75 80.167969 93.75 Z M 80.167969 93.75 " fill-opacity="1" fill-rule="nonzero"/></g><g fill="#000000" fill-opacity="1"><g transform="translate(141.106371, 143.715936)"><g><path d="M 0.46875 0 L 0.4375 -0.09375 L 0.171875 -0.09375 L 0.140625 0 L 0.015625 0 L 0.296875 -0.625 L 0.328125 -0.625 L 0.59375 0 Z M 0.390625 -0.1875 L 0.296875 -0.390625 L 0.21875 -0.1875 Z M 0.390625 -0.1875 "/></g></g></g><g fill="#000000" fill-opacity="1"><g transform="translate(141.719485, 143.715936)"><g><path d="M 0.03125 -0.125 L 0.109375 -0.1875 C 0.128906 -0.15625 0.148438 -0.128906 0.171875 -0.109375 C 0.203125 -0.0976562 0.234375 -0.09375 0.265625 -0.09375 C 0.285156 -0.09375 0.300781 -0.0976562 0.3125 -0.109375 C 0.332031 -0.117188 0.34375 -0.140625 0.34375 -0.171875 C 0.34375 -0.179688 0.335938 -0.191406 0.328125 -0.203125 C 0.316406 -0.210938 0.300781 -0.226562 0.28125 -0.25 L 0.203125 -0.28125 C 0.148438 -0.289062 0.113281 -0.3125 0.09375 -0.34375 C 0.0703125 -0.375 0.0625 -0.410156 0.0625 -0.453125 C 0.0625 -0.484375 0.0664062 -0.507812 0.078125 -0.53125 C 0.0976562 -0.5625 0.125 -0.582031 0.15625 -0.59375 C 0.1875 -0.613281 0.222656 -0.625 0.265625 -0.625 C 0.304688 -0.625 0.34375 -0.613281 0.375 -0.59375 C 0.414062 -0.570312 0.445312 -0.539062 0.46875 -0.5 L 0.375 -0.4375 C 0.34375 -0.476562 0.304688 -0.5 0.265625 -0.5 C 0.242188 -0.5 0.222656 -0.492188 0.203125 -0.484375 C 0.191406 -0.484375 0.1875 -0.472656 0.1875 -0.453125 C 0.1875 -0.441406 0.191406 -0.429688 0.203125 -0.421875 C 0.210938 -0.410156 0.234375 -0.394531 0.265625 -0.375 L 0.328125 -0.34375 C 0.378906 -0.320312 0.414062 -0.296875 0.4375 -0.265625 C 0.46875 -0.242188 0.484375 -0.210938 0.484375 -0.171875 C 0.484375 -0.128906 0.472656 -0.09375 0.453125 -0.0625 C 0.429688 -0.0390625 0.398438 -0.0195312 0.359375 0 C 0.328125 0.0078125 0.296875 0.015625 0.265625 0.015625 C 0.210938 0.015625 0.164062 0.00390625 0.125 -0.015625 C 0.0820312 -0.046875 0.0507812 -0.0820312 0.03125 -0.125 Z M 0.03125 -0.125 "/></g></g></g><g fill="#000000" fill-opacity="1"><g transform="translate(142.237989, 143.715936)"><g><path d="M 0.03125 -0.125 L 0.109375 -0.1875 C 0.128906 -0.15625 0.148438 -0.128906 0.171875 -0.109375 C 0.203125 -0.0976562 0.234375 -0.09375 0.265625 -0.09375 C 0.285156 -0.09375 0.300781 -0.0976562 0.3125 -0.109375 C 0.332031 -0.117188 0.34375 -0.140625 0.34375 -0.171875 C 0.34375 -0.179688 0.335938 -0.191406 0.328125 -0.203125 C 0.316406 -0.210938 0.300781 -0.226562 0.28125 -0.25 L 0.203125 -0.28125 C 0.148438 -0.289062 0.113281 -0.3125 0.09375 -0.34375 C 0.0703125 -0.375 0.0625 -0.410156 0.0625 -0.453125 C 0.0625 -0.484375 0.0664062 -0.507812 0.078125 -0.53125 C 0.0976562 -0.5625 0.125 -0.582031 0.15625 -0.59375 C 0.1875 -0.613281 0.222656 -0.625 0.265625 -0.625 C 0.304688 -0.625 0.34375 -0.613281 0.375 -0.59375 C 0.414062 -0.570312 0.445312 -0.539062 0.46875 -0.5 L 0.375 -0.4375 C 0.34375 -0.476562 0.304688 -0.5 0.265625 -0.5 C 0.242188 -0.5 0.222656 -0.492188 0.203125 -0.484375 C 0.191406 -0.484375 0.1875 -0.472656 0.1875 -0.453125 C 0.1875 -0.441406 0.191406 -0.429688 0.203125 -0.421875 C 0.210938 -0.410156 0.234375 -0.394531 0.265625 -0.375 L 0.328125 -0.34375 C 0.378906 -0.320312 0.414062 -0.296875 0.4375 -0.265625 C 0.46875 -0.242188 0.484375 -0.210938 0.484375 -0.171875 C 0.484375 -0.128906 0.472656 -0.09375 0.453125 -0.0625 C 0.429688 -0.0390625 0.398438 -0.0195312 0.359375 0 C 0.328125 0.0078125 0.296875 0.015625 0.265625 0.015625 C 0.210938 0.015625 0.164062 0.00390625 0.125 -0.015625 C 0.0820312 -0.046875 0.0507812 -0.0820312 0.03125 -0.125 Z M 0.03125 -0.125 "/></g></g></g><g fill="#000000" fill-opacity="1"><g transform="translate(142.756494, 143.715936)"><g><path d="M 0.078125 0 L 0.078125 -0.609375 L 0.484375 -0.609375 L 0.484375 -0.5 L 0.203125 -0.5 L 0.203125 -0.375 L 0.40625 -0.375 L 0.40625 -0.265625 L 0.203125 -0.265625 L 0.203125 -0.109375 L 0.5 -0.109375 L 0.5 0 Z M 0.078125 0 "/></g></g></g><g fill="#000000" fill-opacity="1"><g transform="translate(143.287984, 143.715936)"><g><path d="M 0.203125 0 L 0.203125 -0.5 L 0.015625 -0.5 L 0.015625 -0.609375 L 0.53125 -0.609375 L 0.53125 -0.5 L 0.328125 -0.5 L 0.328125 0 Z M 0.203125 0 "/></g></g></g></svg>