<svg width="183" height="32" viewBox="0 0 183 32" fill="none" xmlns="http://www.w3.org/2000/svg">
<g id="logo-gradient-white-confluence">
<g id="Confluence">
<path d="M48.2503 24.4261C46.9598 25.2846 44.9165 25.6423 42.7656 25.6423C35.9547 25.6423 32.119 21.5645 32.119 15.0187C32.119 8.72317 35.9547 4.32348 42.7298 4.32348C44.7372 4.32348 46.7805 4.71695 48.2503 5.75428V8.50855C46.7805 7.57854 45.1315 7.07776 42.7298 7.07776C37.8546 7.07776 34.9868 10.297 34.9868 15.0544C34.9868 19.8118 37.998 22.9596 42.909 22.9596C45.0957 22.9596 46.7805 22.4588 48.2861 21.7076V24.4261H48.2503Z" fill="white"/>
<path d="M50.2577 17.451C50.2577 12.7294 53.0179 9.29549 57.7497 9.29549C62.4457 9.29549 65.2059 12.7294 65.2059 17.451C65.2059 22.1726 62.4457 25.6781 57.7497 25.6781C53.0179 25.6423 50.2577 22.1726 50.2577 17.451ZM52.9103 17.451C52.9103 20.4557 54.3801 23.1384 57.7856 23.1384C61.1194 23.1384 62.5891 20.4199 62.5891 17.451C62.5891 14.4821 61.1552 11.7994 57.7856 11.7994C54.3801 11.7994 52.9103 14.4463 52.9103 17.451Z" fill="white"/>
<path d="M81.7674 25.3561H79.043V15.8414C79.043 13.0155 77.8959 11.7636 75.3149 11.7636C72.8056 11.7636 71.0491 13.4448 71.0491 16.6283V25.3919H68.3247V9.65318H71.0491V12.2286C72.0528 10.3686 73.9169 9.33125 76.0319 9.33125C79.6524 9.33125 81.7316 11.8351 81.7316 16.1633V25.3561H81.7674Z" fill="white"/>
<path d="M93.3819 9.61742V12.1213H89.2953V25.3561H86.6426V12.1213H84.0975V9.61742H86.6426V7.90047C86.6426 4.96734 88.2916 3 91.6612 3C92.4857 3 93.0234 3.14308 93.4894 3.25039V5.75428C93.0234 5.64697 92.414 5.6112 91.7688 5.6112C90.0839 5.6112 89.2595 6.57698 89.2595 8.00778V9.61742H93.3819Z" fill="white"/>
<path d="M100.515 25.4277C97.9345 25.4277 96.2855 24.2115 96.2855 21.3141V3.03577H99.0099V20.9922C99.0099 22.423 99.9419 22.9238 101.125 22.9238C101.412 22.9238 101.591 22.9238 101.914 22.888V25.3204C101.698 25.3919 101.232 25.4277 100.515 25.4277Z" fill="white"/>
<path d="M104.208 9.61742H106.932V19.1322C106.932 21.958 108.079 23.2099 110.66 23.2099C113.17 23.2099 114.926 21.5288 114.926 18.3453V9.61742H117.65V25.3561H114.926V22.7807C113.922 24.6407 112.058 25.6781 109.943 25.6781C106.323 25.6781 104.244 23.1742 104.244 18.846V9.61742H104.208Z" fill="white"/>
<path d="M129.265 25.6423C123.35 25.6423 120.769 22.2442 120.769 17.4152C120.769 12.6579 123.422 9.25972 128.225 9.25972C133.101 9.25972 135.036 12.6221 135.036 17.4152V18.6314H123.529C123.924 21.3142 125.644 23.0311 129.372 23.0311C131.201 23.0311 132.742 22.6734 134.176 22.1726V24.6765C132.85 25.3919 130.878 25.6423 129.265 25.6423ZM123.494 16.3421H132.312C132.169 13.409 130.842 11.7636 128.118 11.7636C125.214 11.7636 123.78 13.5879 123.494 16.3421Z" fill="white"/>
<path d="M151.669 25.3561H148.945V15.8414C148.945 13.0155 147.798 11.7636 145.217 11.7636C142.708 11.7636 140.951 13.4448 140.951 16.6283V25.3919H138.227V9.65318H140.951V12.2286C141.955 10.3686 143.819 9.33125 145.934 9.33125C149.554 9.33125 151.634 11.8351 151.634 16.1633V25.3561H151.669Z" fill="white"/>
<path d="M166.582 24.9269C165.65 25.4277 164.18 25.6423 162.746 25.6423C157.118 25.6423 154.501 22.2442 154.501 17.4152C154.501 12.6579 157.118 9.25972 162.746 9.25972C164.18 9.25972 165.256 9.43857 166.51 10.0109V12.5148C165.507 12.0498 164.431 11.7636 162.961 11.7636C158.875 11.7636 157.19 14.339 157.19 17.4152C157.19 20.4914 158.911 23.0669 163.033 23.0669C164.646 23.0669 165.65 22.8523 166.618 22.4946V24.9269H166.582Z" fill="white"/>
<path d="M177.228 25.6423C171.314 25.6423 168.733 22.2442 168.733 17.4152C168.733 12.6579 171.385 9.25972 176.189 9.25972C181.064 9.25972 183 12.6221 183 17.4152V18.6314H171.493C171.887 21.3142 173.608 23.0311 177.336 23.0311C179.164 23.0311 180.706 22.6734 182.14 22.1726V24.6765C180.813 25.3919 178.842 25.6423 177.228 25.6423ZM171.457 16.3421H180.275C180.132 13.409 178.806 11.7636 176.081 11.7636C173.178 11.7636 171.744 13.5879 171.457 16.3421Z" fill="white"/>
</g>
<g id="Icon">
<path id="Vector" d="M0.788518 20.8492C0.573435 21.2427 0.286657 21.6719 0.0715736 22.0296C-0.107662 22.3515 -0.000120859 22.7808 0.322504 22.9954L4.98264 25.857C5.34111 26.0716 5.77128 25.9643 5.98636 25.6066C6.1656 25.2847 6.41653 24.8912 6.66746 24.4619C8.53152 21.4215 10.3597 21.7792 13.7294 23.3889L18.3537 25.5708C18.7121 25.7497 19.1423 25.5708 19.3215 25.2131L21.5441 20.2053C21.6874 19.8476 21.5441 19.4184 21.1856 19.2753C20.2177 18.8103 18.282 17.9161 16.5254 17.0576C10.2163 14.0529 4.8751 14.2318 0.788518 20.8492Z" fill="url(#paint0_linear)"/>
<path id="Vector_2" d="M21.6875 9.15244C21.9026 8.75897 22.1893 8.32973 22.4044 7.97204C22.6195 7.65011 22.512 7.22087 22.1535 7.00625L17.4934 4.14466C17.1349 3.93005 16.7047 4.03735 16.4896 4.39505C16.3104 4.71698 16.0595 5.11045 15.8085 5.53969C13.9445 8.58012 12.1163 8.22242 8.74663 6.61278L4.15819 4.39505C3.79972 4.2162 3.36955 4.39505 3.19032 4.75275L0.967789 9.76053C0.8244 10.1182 0.967789 10.5475 1.32626 10.6905C2.29414 11.1556 4.22989 12.0498 5.9864 12.9083C12.2597 15.9487 17.6009 15.7699 21.6875 9.15244Z" fill="url(#paint1_linear)"/>
</g>
</g>
<defs>
<linearGradient id="paint0_linear" x1="21.3944" y1="27.3425" x2="7.31043" y2="19.2319" gradientUnits="userSpaceOnUse">
<stop stop-color="white" stop-opacity="0.48"/>
<stop offset="1" stop-color="white"/>
</linearGradient>
<linearGradient id="paint1_linear" x1="1.10017" y1="2.65617" x2="15.1845" y2="10.7667" gradientUnits="userSpaceOnUse">
<stop stop-color="white" stop-opacity="0.5"/>
<stop offset="1" stop-color="white"/>
</linearGradient>
</defs>
</svg>
